<svg width="17" height="16" viewBox="0 0 17 16" fill="none" xmlns="http://www.w3.org/2000/svg">
<path d="M13.6458 5.29079C13.4585 5.10454 13.205 5 12.9408 5C12.6766 5 12.4232 5.10454 12.2358 5.29079L8.64582 8.83079L5.10582 5.29079C4.91846 5.10454 4.66501 5 4.40082 5C4.13664 5 3.88319 5.10454 3.69582 5.29079C3.60209 5.38376 3.5277 5.49436 3.47693 5.61622C3.42616 5.73807 3.40002 5.86878 3.40002 6.00079C3.40002 6.1328 3.42616 6.26351 3.47693 6.38537C3.5277 6.50723 3.60209 6.61783 3.69582 6.71079L7.93582 10.9508C8.02879 11.0445 8.13939 11.1189 8.26125 11.1697C8.3831 11.2205 8.51381 11.2466 8.64582 11.2466C8.77783 11.2466 8.90854 11.2205 9.0304 11.1697C9.15226 11.1189 9.26286 11.0445 9.35582 10.9508L13.6458 6.71079C13.7396 6.61783 13.8139 6.50723 13.8647 6.38537C13.9155 6.26351 13.9416 6.1328 13.9416 6.00079C13.9416 5.86878 13.9155 5.73807 13.8647 5.61622C13.8139 5.49436 13.7396 5.38376 13.6458 5.29079Z" fill="black"/>
</svg>
