<?xml version="1.0" standalone="no"?>
<!DOCTYPE svg PUBLIC "-//W3C//DTD SVG 20010904//EN"
 "http://www.w3.org/TR/2001/REC-SVG-20010904/DTD/svg10.dtd">
<svg version="1.0" xmlns="http://www.w3.org/2000/svg"
 width="309.000000pt" height="309.000000pt" viewBox="0 0 309.000000 309.000000"
 preserveAspectRatio="xMidYMid meet">
<metadata>
Created by potrace 1.14, written by Peter Selinger 2001-2017
</metadata>
<g transform="translate(0.000000,309.000000) scale(0.100000,-0.100000)"
fill="#000000" stroke="none">
<path d="M1145 3072 c-2 -2 -21 -5 -42 -7 -33 -3 -89 -12 -118 -19 -56 -14
-82 -24 -155 -59 -47 -22 -86 -44 -88 -48 -2 -5 -10 -9 -18 -9 -8 0 -14 -4
-14 -8 0 -4 -12 -15 -27 -24 -49 -29 -223 -212 -223 -235 0 -7 -4 -13 -8 -13
-5 0 -19 -19 -32 -42 -13 -24 -28 -46 -34 -50 -6 -4 -8 -8 -3 -8 4 0 1 -10 -7
-22 -28 -43 -90 -248 -112 -368 -3 -14 -7 -33 -10 -42 -3 -9 -7 -26 -9 -37 -3
-12 -7 -31 -10 -43 -3 -13 -8 -36 -10 -53 -3 -16 -9 -39 -12 -50 -4 -11 -8
-28 -9 -37 -1 -10 -2 -19 -4 -20 -1 -2 -3 -10 -5 -18 -10 -45 -16 -73 -21 -97
-3 -16 -11 -56 -19 -91 -8 -34 -17 -77 -20 -95 -4 -17 -11 -52 -17 -77 -5 -25
-11 -56 -13 -70 -2 -14 -8 -50 -14 -80 -28 -141 -33 -179 -36 -250 -4 -96 20
-237 54 -325 24 -60 75 -155 83 -155 5 0 6 -4 3 -10 -3 -5 -1 -10 4 -10 6 0
11 -4 11 -10 0 -5 10 -22 22 -37 59 -70 94 -109 104 -115 6 -4 28 -23 50 -44
86 -80 262 -176 365 -198 148 -33 250 -50 414 -71 28 -3 57 -8 65 -10 8 -2 42
-7 75 -11 33 -3 69 -8 80 -10 11 -2 40 -7 65 -10 25 -3 56 -7 70 -9 14 -2 50
-7 80 -11 98 -10 115 -13 115 -14 0 -1 18 -4 40 -5 22 -2 63 -6 90 -10 65 -9
260 -9 305 0 60 12 65 13 68 15 3 3 13 6 50 15 17 4 32 12 32 18 0 6 3 8 6 4
8 -7 127 57 179 97 77 59 220 216 198 216 -4 0 -3 4 3 8 15 10 70 118 86 169
7 24 17 43 21 43 5 0 6 4 3 8 -3 4 0 28 5 53 10 41 13 53 23 104 7 34 35 189
40 220 3 17 8 46 12 65 4 19 8 51 10 70 1 19 3 35 4 35 2 0 7 26 14 75 4 25 9
56 11 70 11 55 13 68 25 145 6 44 13 91 16 105 10 60 15 89 19 121 2 19 7 59
11 89 14 94 9 220 -11 325 -8 40 -46 148 -57 160 -4 5 -8 17 -8 27 0 10 -4 18
-10 18 -5 0 -10 5 -10 11 0 45 -172 236 -271 301 -57 38 -217 108 -250 111
-11 1 -19 4 -19 8 0 4 -15 10 -32 14 -18 4 -35 9 -38 10 -3 1 -12 4 -20 8 -48
19 -593 196 -624 203 -11 2 -47 12 -80 23 -62 20 -143 44 -161 47 -5 1 -12 3
-15 4 -21 10 -227 29 -235 22z"/>
</g>
</svg>
